# xmcd
#
# Track frame offsets: 
#        150
#        14215
#        29259
#        46035
#        63463
#        79805
#        98310
#        116864
#        132662
#        147535
#        162283
#        178272
#
# Disc length: 2581 seconds
#
# Revision: 2
# Processed by: cddbd v1.5.2PL0 Copyright (c) Steve Scherf et al.
# Submitted via: ExactAudioCopy v1.3
#
DISCID=aa0a130c
DTITLE=The Baseballs - Strike! Back
DYEAR=2009
DGENRE=Rock and Roll
TTITLE0=Umbrella
TTITLE1=Love in this club
TTITLE2=Hey there delilah
TTITLE3=Bleeding love
TTITLE4=Hot Ncold
TTITLE5=I don't feel like dancin'
TTITLE6=Don't cha
TTITLE7=Let's get loud
TTITLE8=Angels
TTITLE9=Crazy in love
TTITLE10=This love
TTITLE11=The look
EXTD=YEAR: 2009
EXTT0=
EXTT1=
EXTT2=
EXTT3=
EXTT4=
EXTT5=
EXTT6=
EXTT7=
EXTT8=
EXTT9=
EXTT10=
EXTT11=
PLAYORDER=
